REM DIRINDEX 1\2\4,1\2\5,1\2\6,1\3\7,1\3\8,1\3\9,1\3\10
REM DIRNAME cjc058,folder01,folder02,folder03,folder04,folder05,folder06,folder07,folder08,folder09
TITLE ""
FILE "a_64.mp3" MP3
  TRACK 01 AUDIO
    TITLE "0:"
    INDEX 01 00:00:00
  TRACK 02 AUDIO
    TITLE "6:cjc058_1705"
    INDEX 01 00:00:13
  TRACK 03 AUDIO
    TITLE "0:"
    INDEX 01 00:02:32
  TRACK 04 AUDIO
    TITLE "4:cjc058_1706"
    INDEX 01 00:03:04
  TRACK 05 AUDIO
    TITLE "0:"
    INDEX 01 00:04:52
  TRACK 06 AUDIO
    TITLE "5:cjc058_1707"
    INDEX 01 00:05:12
  TRACK 07 AUDIO
    TITLE "0:"
    INDEX 01 00:06:43
  TRACK 08 AUDIO
    TITLE "4:cjc058_1708"
    INDEX 01 00:07:52
  TRACK 09 AUDIO
    TITLE "0:"
    INDEX 01 00:09:32
  TRACK 10 AUDIO
    TITLE "5:cjc058_1709"
    INDEX 01 00:09:69
  TRACK 11 AUDIO
    TITLE "0:"
    INDEX 01 00:11:62
  TRACK 12 AUDIO
    TITLE "4:cjc058_1710"
    INDEX 01 00:13:00
  TRACK 13 AUDIO
    TITLE "0:"
    INDEX 01 00:14:60
  TRACK 14 AUDIO
    TITLE "5:cjc058_1711"
    INDEX 01 00:15:19
  TRACK 15 AUDIO
    TITLE "0:"
    INDEX 01 00:16:63
  TRACK 16 AUDIO
    TITLE "4:cjc058_1712"
    INDEX 01 00:17:74
  TRACK 17 AUDIO
    TITLE "0:"
    INDEX 01 00:19:56
  TRACK 18 AUDIO
    TITLE "5:cjc058_1713"
    INDEX 01 00:20:18
  TRACK 19 AUDIO
    TITLE "0:"
    INDEX 01 00:21:39
  TRACK 20 AUDIO
    TITLE "4:cjc058_1714"
    INDEX 01 00:22:52
  TRACK 21 AUDIO
    TITLE "0:"
    INDEX 01 00:24:31
  TRACK 22 AUDIO
    TITLE "5:cjc058_1715"
    INDEX 01 00:24:67
  TRACK 23 AUDIO
    TITLE "0:"
    INDEX 01 00:29:66
  TRACK 24 AUDIO
    TITLE "4:cjc058_1716"
    INDEX 01 00:31:04
  TRACK 25 AUDIO
    TITLE "0:"
    INDEX 01 00:32:21
  TRACK 26 AUDIO
    TITLE "5:cjc058_1717"
    INDEX 01 00:32:58
  TRACK 27 AUDIO
    TITLE "0:"
    INDEX 01 00:35:39
  TRACK 28 AUDIO
    TITLE "4:cjc058_1718"
    INDEX 01 00:36:46
  TRACK 29 AUDIO
    TITLE "0:"
    INDEX 01 00:37:61
  TRACK 30 AUDIO
    TITLE "5:cjc058_1719"
    INDEX 01 00:38:18
  TRACK 31 AUDIO
    TITLE "0:"
    INDEX 01 00:41:04
  TRACK 32 AUDIO
    TITLE "4:cjc058_1720"
    INDEX 01 00:42:14
  TRACK 33 AUDIO
    TITLE "0:"
    INDEX 01 00:43:66
  TRACK 34 AUDIO
    TITLE "5:cjc058_1721"
    INDEX 01 00:44:28
  TRACK 35 AUDIO
    TITLE "0:"
    INDEX 01 00:48:42
  TRACK 36 AUDIO
    TITLE "4:cjc058_1722"
    INDEX 01 00:49:51
  TRACK 37 AUDIO
    TITLE "0:"
    INDEX 01 00:52:30
  TRACK 38 AUDIO
    TITLE "5:cjc058_1723"
    INDEX 01 00:52:67
  TRACK 39 AUDIO
    TITLE "0:"
    INDEX 01 00:55:06
  TRACK 40 AUDIO
    TITLE "4:cjc058_1724"
    INDEX 01 00:56:16
  TRACK 41 AUDIO
    TITLE "0:"
    INDEX 01 00:57:62
  TRACK 42 AUDIO
    TITLE "5:cjc058_1725"
    INDEX 01 00:58:22
  TRACK 43 AUDIO
    TITLE "0:"
    INDEX 01 01:00:00
  TRACK 44 AUDIO
    TITLE "4:cjc058_1726"
    INDEX 01 01:01:11
  TRACK 45 AUDIO
    TITLE "0:"
    INDEX 01 01:02:65
  TRACK 46 AUDIO
    TITLE "5:cjc058_1727"
    INDEX 01 01:03:26
  TRACK 47 AUDIO
    TITLE "0:"
    INDEX 01 01:06:65
  TRACK 48 AUDIO
    TITLE "4:cjc058_1728"
    INDEX 01 01:08:01
  TRACK 49 AUDIO
    TITLE "0:"
    INDEX 01 01:09:44
  TRACK 50 AUDIO
    TITLE "5:cjc058_1729"
    INDEX 01 01:10:06
  TRACK 51 AUDIO
    TITLE "0:"
    INDEX 01 01:11:51
  TRACK 52 AUDIO
    TITLE "4:cjc058_1730"
    INDEX 01 01:12:62
  TRACK 53 AUDIO
    TITLE "0:"
    INDEX 01 01:14:27
  TRACK 54 AUDIO
    TITLE "5:cjc058_1731"
    INDEX 01 01:14:63
  TRACK 55 AUDIO
    TITLE "0:"
    INDEX 01 01:16:26
  TRACK 56 AUDIO
    TITLE "4:cjc058_1732"
    INDEX 01 01:17:37
  TRACK 57 AUDIO
    TITLE "0:"
    INDEX 01 01:19:05
  TRACK 58 AUDIO
    TITLE "5:cjc058_1733"
    INDEX 01 01:19:42
  TRACK 59 AUDIO
    TITLE "0:"
    INDEX 01 01:20:69
  TRACK 60 AUDIO
    TITLE "4:cjc058_1734"
    INDEX 01 01:22:05
  TRACK 61 AUDIO
    TITLE "0:"
    INDEX 01 01:23:54
  TRACK 62 AUDIO
    TITLE "5:cjc058_1735"
    INDEX 01 01:24:16
  TRACK 63 AUDIO
    TITLE "0:"
    INDEX 01 01:25:35
  TRACK 64 AUDIO
    TITLE "4:cjc058_1736"
    INDEX 01 01:26:46
  TRACK 65 AUDIO
    TITLE "0:"
    INDEX 01 01:28:00
  TRACK 66 AUDIO
    TITLE "5:cjc058_1737"
    INDEX 01 01:28:37
  TRACK 67 AUDIO
    TITLE "0:"
    INDEX 01 01:30:03
  TRACK 68 AUDIO
    TITLE "4:cjc058_1738"
    INDEX 01 01:31:10
  TRACK 69 AUDIO
    TITLE "0:"
    INDEX 01 01:32:35
  TRACK 70 AUDIO
    TITLE "5:cjc058_1739"
    INDEX 01 01:32:72
  TRACK 71 AUDIO
    TITLE "0:"
    INDEX 01 01:35:24
  TRACK 72 AUDIO
    TITLE "4:cjc058_1740"
    INDEX 01 01:36:33
  TRACK 73 AUDIO
    TITLE "0:"
    INDEX 01 01:37:56
  TRACK 74 AUDIO
    TITLE "5:cjc058_1741"
    INDEX 01 01:38:18
  TRACK 75 AUDIO
    TITLE "0:"
    INDEX 01 01:40:62
  TRACK 76 AUDIO
    TITLE "4:cjc058_1742"
    INDEX 01 01:41:73
  TRACK 77 AUDIO
    TITLE "0:"
    INDEX 01 01:43:35
  TRACK 78 AUDIO
    TITLE "5:cjc058_1743"
    INDEX 01 01:43:72
  TRACK 79 AUDIO
    TITLE "0:"
    INDEX 01 01:46:06
  TRACK 80 AUDIO
    TITLE "4:cjc058_1744"
    INDEX 01 01:47:15
  TRACK 81 AUDIO
    TITLE "0:"
    INDEX 01 01:49:51
  TRACK 82 AUDIO
    TITLE "5:cjc058_1745"
    INDEX 01 01:50:13
  TRACK 83 AUDIO
    TITLE "0:"
    INDEX 01 01:52:30
  TRACK 84 AUDIO
    TITLE "4:cjc058_1746"
    INDEX 01 01:53:37
  TRACK 85 AUDIO
    TITLE "0:"
    INDEX 01 01:55:38
  TRACK 86 AUDIO
    TITLE "5:cjc058_1747"
    INDEX 01 01:56:00
  TRACK 87 AUDIO
    TITLE "0:"
    INDEX 01 01:58:66
